PathFileType	4	(X/Y/Z)	Patient4_TMGait_0pt2_03_left_07.trc.trc
DataRate	CameraRate	NumFrames	NumMarkers	Units	OrigDataRate	OrigDataStartFrame	OrigNumFrames
46.204620462046	46.204620462046	6	33	mm	46.204620462046	1	       141
Frame#	Time	Sacral			L.Shoulder			Chest			R.Shoulder			Neck			R.ASIS			L.ASIS			R.Thigh.Superior			R.Thigh.Lateral			R.Thigh.Inferior			R.Patella			L.Thigh.Superior			L.Thigh.Lateral			L.Thigh.Inferior			L.Patella			L.Shank.Superior			L.Shank.Lateral			L.Shank.Inferior			R.Shank.Superior			R.Shank.Lateral			R.Shank.Inferior			R.Heel			R.Midfoot.Superior			R.Midfoot.Lateral			R.Toe			L.Heel			L.Midfoot.Lateral			L.Midfoot.Superior			L.Toe			L.Elbow			L.Wrist			R.Elbow			R.Wrist			
		X1	Y1	Z1	X2	Y2	Z2	X3	Y3	Z3	X4	Y4	Z4	X5	Y5	Z5	X6	Y6	Z6	X7	Y7	Z7	X8	Y8	Z8	X9	Y9	Z9	X10	Y10	Z10	X11	Y11	Z11	X12	Y12	Z12	X13	Y13	Z13	X14	Y14	Z14	X15	Y15	Z15	X16	Y16	Z16	X17	Y17	Z17	X18	Y18	Z18	X19	Y19	Z19	X20	Y20	Z20	X21	Y21	Z21	X22	Y22	Z22	X23	Y23	Z23	X24	Y24	Z24	X25	Y25	Z25	X26	Y26	Z26	X27	Y27	Z27	X28	Y28	Z28	X29	Y29	Z29	X30	Y30	Z30	X31	Y31	Z31	X32	Y32	Z32	X33	Y33	Z33	

1	13.790000000000	803.127902055365	992.123360172499	600.000870334169	1016.731632761401	1404.303078297031	404.120068459062	1120.654739355342	1319.561320884760	556.339677208532	1063.875078486170	1403.004742542932	734.655174899425	1033.308274782816	1466.765833765822	558.909221866094	1041.236075435946	913.681465110079	698.953030230513	1004.108871077401	940.031163439188	427.178725176246	1097.901825900553	728.425326155836	638.184130626152	1039.732594753749	606.301962812937	695.966667046253	1105.542625216342	568.249207425247	597.586349272596	1115.816414701212	471.507620776881	594.678488768931	1093.635385195111	766.789405991063	451.642928443517	1050.618122856173	643.425023019888	363.835767527593	1154.510981089415	579.381211574143	426.163121883332	1167.103106680990	489.354073902641	409.000785034257	1097.327712754487	424.779089014022	390.766061887695	957.379246480355	395.743054949814	328.344098484961	933.946237202069	263.153574962633	369.825224608737	1069.307486978130	383.145018445357	604.602060712561	997.357537928749	290.121550141217	683.837819166432	997.414999891341	195.228695958717	610.688446281714	833.299599195536	45.131239097071	618.316502865124	1009.712213526448	95.934466838874	610.696263699043	932.037056548437	37.574810657300	669.680622347318	1132.001233793614	40.689994351263	608.499998335781	737.554776937453	201.172155374110	387.054093822397	800.003375710847	164.285423616553	305.794605701017	903.826446035091	169.561470983796	334.364181063037	984.195199157475	60.742239019203	297.923710000229	894.835872967588	1072.757274471317	288.951610355364	920.739387055455	813.567208340192	296.133008495903	1173.611434225781	1077.814019869852	842.386828896516	1394.678265783524	1141.654577620914	742.330628912866	
2	13.811642857143	803.167620913524	989.071003575732	602.604782269820	1011.717922477823	1404.042907869844	407.140621093138	1118.158064123870	1319.147113170787	557.431442904455	1062.833229447243	1400.431049227898	736.879248877287	1029.320181077220	1465.433342228491	562.306725655333	1042.493785680492	911.764468152350	699.162624787118	1003.044543143775	939.116215629982	427.951238495051	1099.461208890413	726.561902505273	637.252863738002	1042.200161931142	604.163015283156	694.808559053041	1107.578248727564	566.700975628847	595.808242746037	1117.910291060026	469.240088846405	592.731912567820	1094.587832392941	767.298290720358	451.976558617027	1053.482759565924	643.197089010341	364.608754409913	1158.076843431876	580.540387800354	426.864185690162	1171.725147371093	490.479397764028	409.703352475694	1102.252126104034	425.454186709236	390.660640245174	962.116057102970	396.447566174522	328.108047317130	939.324316579507	263.266014468344	368.288509545988	1070.030761306550	381.165225960667	603.053477031478	996.876771434403	289.446702750036	682.643963363746	995.262385141346	194.486103553933	609.890477966836	829.241032359829	45.809346581607	618.220169986915	1005.671897114908	95.986310633163	610.534257977415	927.853136132059	37.892845463815	669.552887361911	1127.804051071978	40.333890891325	608.533905953844	743.076339179210	199.984138944857	385.383899636696	805.494564225972	164.736717420556	303.357142541951	909.475097151255	170.094582814949	331.769623745539	990.376518765725	62.276144773124	293.226618643327	886.736367378014	1074.319226022411	292.148046812545	903.202200191396	814.856775542120	300.451126634180	1184.634867912325	1079.995195562150	838.784163660043	1397.616134157563	1157.909471394981	736.385057125556	
3	13.833285714286	803.191756812447	986.277557972143	605.223200468424	1006.597031060933	1404.011265426418	410.183528119669	1115.640051951688	1318.953845660006	558.442674394810	1061.923262105809	1398.079819439686	739.047882795348	1025.341802669286	1464.304025558894	565.703625174594	1043.710599333390	910.002792003270	699.213635643283	1001.788019831758	938.459154932591	428.584954986795	1100.782460281914	724.788277259387	636.218291706430	1044.369607346050	602.168945625879	693.636809818064	1109.264824195637	565.213217645326	594.023542526051	1119.602258209128	467.068794329757	590.818213577179	1095.213364602616	767.925842411310	451.986263125688	1055.768810766547	643.109864787525	365.029628721091	1161.041143488773	581.745104205484	427.104511624389	1175.778252905200	491.798740643189	409.979262533410	1106.920662885753	426.217202276877	390.172255094485	966.862391794569	396.405110063370	327.460820506162	945.551422483697	262.567166420963	366.358341412448	1070.397913390365	379.295000552668	601.547803947280	996.084695359254	288.846921423398	681.494157778916	992.880869446172	193.811022014961	609.134202947521	825.011644101212	46.506985322025	618.140811428715	1001.483533209992	96.043972795033	610.383285337834	923.505262408914	38.214631841149	669.426990950863	1123.439383063769	39.986616334185	608.567224297854	749.984991758398	196.880759681972	383.286905677702	812.520734289024	163.564233058296	300.534523605827	916.565082618294	169.622351192443	328.813533866886	998.561620822784	63.301415572751	288.291946285572	878.397622221118	1076.071199907838	295.685959859221	885.316405588407	816.427261263672	305.550586835190	1196.044542385984	1082.795002937499	835.016852968932	1400.629550059133	1174.773694110619	730.291407720675	
4	13.854928571429	803.185280585661	983.970148018483	607.751963283068	1001.512449823051	1404.314387598084	413.127157456925	1113.181121120925	1319.089583340279	559.283761583343	1061.233297550253	1396.142377679631	741.037206011628	1021.525921148780	1463.515953559849	568.954480852155	1044.819527394800	908.537328184177	699.025195527434	1000.307151158469	938.203940449921	428.988833810376	1101.689715894828	723.209836578581	635.070932292824	1046.001211118326	600.460774408480	692.492614154673	1110.349535043361	563.867195033001	592.301071641527	1120.608757646386	465.123102682541	589.028552582356	1095.337959689618	768.697835282591	451.538964577976	1057.130219623188	643.223068833116	364.949286558475	1163.019295854492	582.967437247728	426.704581859839	1178.852364652061	493.350833718846	409.672083880705	1111.044735252003	427.093834147383	389.192690368989	971.500602406073	395.342724005090	326.258561487615	952.786660148493	260.824766096654	363.972030041031	1070.203461888447	377.654693011618	600.162549263305	994.850769237944	288.371057815181	680.452583805105	990.237611035311	193.254344381104	608.463924005444	820.685096405570	47.192466900964	618.087417805703	997.226607297570	96.104934724959	610.252587568122	919.077704994894	38.526811964980	669.316484847384	1118.988814361586	39.667378735914	608.598208255670	758.684143348359	191.291984437653	380.660442653637	821.552351108816	160.251602131904	297.293517070530	925.485003315419	167.853937855940	325.500007153303	1009.313388022587	63.699655241796	283.294773847999	869.990818373578	1078.063645894506	299.572825775542	867.598855267711	818.383477426046	311.599249108258	1207.563724476384	1086.387298597117	831.145056291520	1403.623506885446	1191.885716474659	724.202949108620	
5	13.876571428571	803.130603763795	982.329833143209	610.098275930015	996.574741580564	1405.038993353398	415.864087373787	1110.838944078804	1319.640287682871	559.873967939106	1060.825667639473	1394.770148480618	742.738335789429	1017.990183617269	1463.180546046141	571.933670366484	1045.765298541228	907.483536410808	698.534499763536	998.586257376608	938.461732917267	429.092997517718	1102.034886343541	721.908623152933	633.806047209919	1046.891472464865	599.149877902810	691.412084334738	1110.612948598586	562.725125997092	590.697668315989	1120.681437371878	463.506411072428	587.435887452803	1094.820335421955	769.626203840251	450.548795828480	1057.310701742378	643.580077235621	364.271591926605	1163.713345044111	584.183980889314	425.562999455748	1180.631693925143	495.166505081684	408.698182858448	1114.403228318975	428.116940904021	387.674272295483	975.979461592700	393.099019423601	324.411812800837	961.161223060060	257.945354503350	361.118585172724	1069.264945908120	376.339345950488	598.960142054174	993.058065864880	288.051600767215	679.569083440833	987.292655142112	192.852107181040	607.911800172266	816.310848627452	47.829580176382	618.065604667987	992.953447293049	96.165109585142	610.148423063805	914.628506049235	38.814095955269	669.232456035202	1114.509190590253	39.392223599921	608.625371499368	769.519392534372	182.916916676540	377.448981126780	832.983147921315	154.538592566051	293.643790888538	936.537563689661	164.680504709337	321.878682599703	1023.037120356645	63.502440669947	278.435481892971	861.605745027222	1080.366449854442	303.805910235486	850.449289087935	820.839122071487	318.732529380690	1218.958488540879	1090.905749219279	827.212166192799	1406.512970048678	1208.970714053808	718.230746196039	
6	13.898214285714	803.010659455597	981.471836899635	612.185670783063	991.857311886700	1406.238423029573	418.305292088415	1108.645572983811	1320.657384702878	560.146917647854	1060.729625835440	1394.058353396070	744.063682604089	1014.808706545690	1463.368950021937	574.541024219690	1046.509759368656	906.918889092728	697.703195487236	996.632312012687	939.296558634505	428.854788402722	1101.712961924269	720.934753926786	632.425846868259	1046.893553332922	598.306750000109	690.424288923409	1109.891733264098	561.824349039001	589.255155554059	1119.633027856019	462.287182521340	586.090079728780	1093.573077792730	770.705313920304	448.989687289061	1056.173513579272	644.199348906033	362.969943695670	1162.948627271983	585.374497435311	423.672862653170	1180.929889009229	497.259488106496	407.063902278626	1116.862352409898	429.319944668199	385.644542136744	980.315016993896	389.654797593857	321.902794890016	970.740195131796	254.001945708802	357.852593622805	1067.444182280023	375.410187999761	597.983388005422	990.618677879240	287.900648494038	678.874992233944	984.007459608273	192.621548771713	607.494829103723	811.915887562633	48.379801214030	618.076961632388	988.689728186936	96.219031669079	610.073410591524	910.190286192505	39.060397433891	669.182593460962	1110.033576782890	39.172822399150	608.647600175373	782.706786673953	171.799682607104	373.660396244458	847.053785500298	146.482090979796	289.650713666211	949.872810082961	160.207705709147	318.055268908043	1039.890839306733	62.896486054952	273.941673457279	853.260748925067	1083.054428459306	308.360634256371	834.135981600366	823.898636134490	327.018889586348	1230.040311449702	1096.417161518809	823.242708379626	1409.224263476363	1225.836454372847	712.438864947027	
